<svg id="visual" viewBox="0 0 900 600" width="900" height="600" xmlns="http://www.w3.org/2000/svg" xmlns:xlink="http://www.w3.org/1999/xlink" version="1.1"><rect x="0" y="0" width="900" height="600" fill="#132025"></rect><defs><linearGradient id="grad1_0" x1="33.3%" y1="0%" x2="100%" y2="100%"><stop offset="20%" stop-color="#132025" stop-opacity="1"></stop><stop offset="80%" stop-color="#132025" stop-opacity="1"></stop></linearGradient></defs><defs><linearGradient id="grad2_0" x1="0%" y1="0%" x2="66.7%" y2="100%"><stop offset="20%" stop-color="#132025" stop-opacity="1"></stop><stop offset="80%" stop-color="#132025" stop-opacity="1"></stop></linearGradient></defs><g transform="translate(900, 0)"><path d="M0 378.6C-42.9 380.1 -85.8 381.7 -117 360.1C-148.1 338.4 -167.5 293.6 -191 262.9C-214.5 232.3 -242.1 215.8 -264.5 192.2C-287 168.6 -304.3 138 -322.4 104.8C-340.6 71.5 -359.6 35.8 -378.6 0L0 0Z" fill="#644c71"></path></g><g transform="translate(0, 600)"><path d="M0 -378.6C38.5 -370.2 77 -361.8 112.2 -345.2C147.3 -328.6 179 -303.9 199.8 -275.1C220.7 -246.3 230.6 -213.5 259.7 -188.7C288.8 -163.9 337 -147.1 360.1 -117C383.1 -86.9 380.8 -43.4 378.6 0L0 0Z" fill="#644c71"></path></g></svg>