<svg id="visual" viewBox="0 0 900 600" width="900" height="600" xmlns="http://www.w3.org/2000/svg" xmlns:xlink="http://www.w3.org/1999/xlink" version="1.1"><rect x="0" y="0" width="900" height="600" fill="#538031"></rect><path d="M0 324L21.5 328.7C43 333.3 86 342.7 128.8 346.2C171.7 349.7 214.3 347.3 257.2 346.5C300 345.7 343 346.3 385.8 348.3C428.7 350.3 471.3 353.7 514.2 339.5C557 325.3 600 293.7 642.8 280.3C685.7 267 728.3 272 771.2 281C814 290 857 303 878.5 309.5L900 316L900 601L878.5 601C857 601 814 601 771.2 601C728.3 601 685.7 601 642.8 601C600 601 557 601 514.2 601C471.3 601 428.7 601 385.8 601C343 601 300 601 257.2 601C214.3 601 171.7 601 128.8 601C86 601 43 601 21.5 601L0 601Z" fill="#273a1a"></path><path d="M0 345L21.5 345.3C43 345.7 86 346.3 128.8 352.2C171.7 358 214.3 369 257.2 362.3C300 355.7 343 331.3 385.8 325.2C428.7 319 471.3 331 514.2 333C557 335 600 327 642.8 321.2C685.7 315.3 728.3 311.7 771.2 318C814 324.3 857 340.7 878.5 348.8L900 357L900 601L878.5 601C857 601 814 601 771.2 601C728.3 601 685.7 601 642.8 601C600 601 557 601 514.2 601C471.3 601 428.7 601 385.8 601C343 601 300 601 257.2 601C214.3 601 171.7 601 128.8 601C86 601 43 601 21.5 601L0 601Z" fill="#243219"></path><path d="M0 369L21.5 381.7C43 394.3 86 419.7 128.8 416.3C171.7 413 214.3 381 257.2 381.7C300 382.3 343 415.7 385.8 419.5C428.7 423.3 471.3 397.7 514.2 398.8C557 400 600 428 642.8 431.7C685.7 435.3 728.3 414.7 771.2 406.7C814 398.7 857 403.3 878.5 405.7L900 408L900 601L878.5 601C857 601 814 601 771.2 601C728.3 601 685.7 601 642.8 601C600 601 557 601 514.2 601C471.3 601 428.7 601 385.8 601C343 601 300 601 257.2 601C214.3 601 171.7 601 128.8 601C86 601 43 601 21.5 601L0 601Z" fill="#202a18"></path><path d="M0 483L21.5 479C43 475 86 467 128.8 457.3C171.7 447.7 214.3 436.3 257.2 438.8C300 441.3 343 457.7 385.8 456.7C428.7 455.7 471.3 437.3 514.2 435.2C557 433 600 447 642.8 449.2C685.7 451.3 728.3 441.7 771.2 435.8C814 430 857 428 878.5 427L900 426L900 601L878.5 601C857 601 814 601 771.2 601C728.3 601 685.7 601 642.8 601C600 601 557 601 514.2 601C471.3 601 428.7 601 385.8 601C343 601 300 601 257.2 601C214.3 601 171.7 601 128.8 601C86 601 43 601 21.5 601L0 601Z" fill="#1c2217"></path><path d="M0 485L21.5 492.5C43 500 86 515 128.8 518.5C171.7 522 214.3 514 257.2 506.2C300 498.3 343 490.7 385.8 486.3C428.7 482 471.3 481 514.2 488C557 495 600 510 642.8 519.2C685.7 528.3 728.3 531.7 771.2 525.2C814 518.7 857 502.3 878.5 494.2L900 486L900 601L878.5 601C857 601 814 601 771.2 601C728.3 601 685.7 601 642.8 601C600 601 557 601 514.2 601C471.3 601 428.7 601 385.8 601C343 601 300 601 257.2 601C214.3 601 171.7 601 128.8 601C86 601 43 601 21.5 601L0 601Z" fill="#181a16"></path></svg>