<svg id="visual" viewBox="0 0 900 600" width="900" height="600" xmlns="http://www.w3.org/2000/svg" xmlns:xlink="http://www.w3.org/1999/xlink" version="1.1"><rect width="900" height="600" fill="#644c71"></rect><g><g transform="translate(209 304)"><path d="M100.2 -36.3C111.6 2.3 89.8 48 54.7 72.9C19.7 97.9 -28.7 102 -59.1 80.2C-89.4 58.4 -101.8 10.7 -88.9 -30.1C-76.1 -70.8 -38 -104.6 3.2 -105.6C44.4 -106.7 88.9 -75 100.2 -36.3Z" stroke="#c49041" fill="none" stroke-width="20"></path></g><g transform="translate(813 277)"><path d="M62.7 -16.9C71.8 7.8 63.4 41.8 41.7 57.6C20 73.4 -15 71.1 -38.8 53.7C-62.7 36.3 -75.4 3.8 -67 -19.7C-58.7 -43.2 -29.4 -57.9 -1.3 -57.5C26.8 -57 53.5 -41.6 62.7 -16.9Z" stroke="#c49041" fill="none" stroke-width="20"></path></g><g transform="translate(581 499)"><path d="M53.9 -17.9C60.6 3 50.3 29.1 31.7 42.3C13.1 55.5 -13.9 55.8 -34.3 42.2C-54.7 28.5 -68.6 0.9 -61.8 -20.2C-55 -41.3 -27.5 -55.7 -1.9 -55.1C23.6 -54.5 47.2 -38.8 53.9 -17.9Z" stroke="#c49041" fill="none" stroke-width="20"></path></g></g></svg>