<svg id="visual" viewBox="0 0 900 600" width="900" height="600" xmlns="http://www.w3.org/2000/svg" xmlns:xlink="http://www.w3.org/1999/xlink" version="1.1"><g stroke-width="1" stroke-linejoin="bevel"><path d="M428 286L480 227L377 238Z" fill="#111c2e" stroke="#111c2e"></path><path d="M428 286L534 309L480 227Z" fill="#c17946" stroke="#c17946"></path><path d="M377 238L332 386L428 286Z" fill="#c49041" stroke="#c49041"></path><path d="M428 286L526 403L534 309Z" fill="#b7644d" stroke="#b7644d"></path><path d="M569 125L489 93L480 227Z" fill="#b7644d" stroke="#b7644d"></path><path d="M480 227L489 93L377 238Z" fill="#904659" stroke="#904659"></path><path d="M377 238L273 196L289 271Z" fill="#763c59" stroke="#763c59"></path><path d="M370 70L273 196L377 238Z" fill="#3f2d4c" stroke="#3f2d4c"></path><path d="M534 309L589 181L480 227Z" fill="#26253e" stroke="#26253e"></path><path d="M489 93L370 70L377 238Z" fill="#b7644d" stroke="#b7644d"></path><path d="M589 181L569 125L480 227Z" fill="#3f2d4c" stroke="#3f2d4c"></path><path d="M289 271L332 386L377 238Z" fill="#763c59" stroke="#763c59"></path><path d="M332 386L378 415L428 286Z" fill="#c49041" stroke="#c49041"></path><path d="M526 403L602 322L534 309Z" fill="#763c59" stroke="#763c59"></path><path d="M534 309L602 322L589 181Z" fill="#26253e" stroke="#26253e"></path><path d="M378 415L526 403L428 286Z" fill="#5a3555" stroke="#5a3555"></path><path d="M370 70L308 78L273 196Z" fill="#a65354" stroke="#a65354"></path><path d="M315 478L409 461L378 415Z" fill="#3f2d4c" stroke="#3f2d4c"></path><path d="M378 415L409 461L526 403Z" fill="#00101c" stroke="#00101c"></path><path d="M166 78L198 217L273 196Z" fill="#904659" stroke="#904659"></path><path d="M273 196L198 217L289 271Z" fill="#3f2d4c" stroke="#3f2d4c"></path><path d="M289 271L180 317L332 386Z" fill="#00101c" stroke="#00101c"></path><path d="M370 70L319 0L308 78Z" fill="#00101c" stroke="#00101c"></path><path d="M489 93L399 0L370 70Z" fill="#a65354" stroke="#a65354"></path><path d="M474 0L399 0L489 93Z" fill="#904659" stroke="#904659"></path><path d="M562 0L474 0L489 93Z" fill="#111c2e" stroke="#111c2e"></path><path d="M571 475L603 403L526 403Z" fill="#a65354" stroke="#a65354"></path><path d="M526 403L603 403L602 322Z" fill="#111c2e" stroke="#111c2e"></path><path d="M603 403L666 308L602 322Z" fill="#763c59" stroke="#763c59"></path><path d="M602 322L666 308L589 181Z" fill="#a65354" stroke="#a65354"></path><path d="M589 181L660 114L569 125Z" fill="#00101c" stroke="#00101c"></path><path d="M666 308L681 192L589 181Z" fill="#b7644d" stroke="#b7644d"></path><path d="M569 125L562 0L489 93Z" fill="#c49041" stroke="#c49041"></path><path d="M399 0L319 0L370 70Z" fill="#00101c" stroke="#00101c"></path><path d="M308 78L166 78L273 196Z" fill="#c17946" stroke="#c17946"></path><path d="M681 192L660 114L589 181Z" fill="#c17946" stroke="#c17946"></path><path d="M198 217L180 317L289 271Z" fill="#26253e" stroke="#26253e"></path><path d="M332 386L315 478L378 415Z" fill="#763c59" stroke="#763c59"></path><path d="M196 409L315 478L332 386Z" fill="#3f2d4c" stroke="#3f2d4c"></path><path d="M660 114L562 0L569 125Z" fill="#c17946" stroke="#c17946"></path><path d="M603 403L704 363L666 308Z" fill="#3f2d4c" stroke="#3f2d4c"></path><path d="M473 529L571 475L526 403Z" fill="#904659" stroke="#904659"></path><path d="M473 529L526 403L409 461Z" fill="#00101c" stroke="#00101c"></path><path d="M180 317L196 409L332 386Z" fill="#5a3555" stroke="#5a3555"></path><path d="M425 600L473 529L409 461Z" fill="#5a3555" stroke="#5a3555"></path><path d="M690 466L704 363L603 403Z" fill="#26253e" stroke="#26253e"></path><path d="M796 301L786 161L681 192Z" fill="#b7644d" stroke="#b7644d"></path><path d="M230 0L166 78L308 78Z" fill="#904659" stroke="#904659"></path><path d="M198 217L105 303L180 317Z" fill="#5a3555" stroke="#5a3555"></path><path d="M319 0L230 0L308 78Z" fill="#3f2d4c" stroke="#3f2d4c"></path><path d="M100 0L137 113L166 78Z" fill="#00101c" stroke="#00101c"></path><path d="M166 78L137 113L198 217Z" fill="#b7644d" stroke="#b7644d"></path><path d="M180 317L131 429L196 409Z" fill="#26253e" stroke="#26253e"></path><path d="M137 113L118 175L198 217Z" fill="#c49041" stroke="#c49041"></path><path d="M118 175L105 303L198 217Z" fill="#763c59" stroke="#763c59"></path><path d="M196 409L188 478L315 478Z" fill="#111c2e" stroke="#111c2e"></path><path d="M315 478L425 600L409 461Z" fill="#a65354" stroke="#a65354"></path><path d="M131 429L188 478L196 409Z" fill="#5a3555" stroke="#5a3555"></path><path d="M611 600L690 466L571 475Z" fill="#5a3555" stroke="#5a3555"></path><path d="M571 475L690 466L603 403Z" fill="#c49041" stroke="#c49041"></path><path d="M764 0L695 0L660 114Z" fill="#b7644d" stroke="#b7644d"></path><path d="M660 114L695 0L562 0Z" fill="#3f2d4c" stroke="#3f2d4c"></path><path d="M786 161L660 114L681 192Z" fill="#763c59" stroke="#763c59"></path><path d="M105 303L131 429L180 317Z" fill="#5a3555" stroke="#5a3555"></path><path d="M796 301L666 308L704 363Z" fill="#5a3555" stroke="#5a3555"></path><path d="M796 301L681 192L666 308Z" fill="#c17946" stroke="#c17946"></path><path d="M282 600L425 600L315 478Z" fill="#763c59" stroke="#763c59"></path><path d="M473 529L506 600L571 475Z" fill="#00101c" stroke="#00101c"></path><path d="M828 411L796 301L704 363Z" fill="#763c59" stroke="#763c59"></path><path d="M425 600L506 600L473 529Z" fill="#763c59" stroke="#763c59"></path><path d="M191 600L282 600L188 478Z" fill="#c49041" stroke="#c49041"></path><path d="M188 478L282 600L315 478Z" fill="#b7644d" stroke="#b7644d"></path><path d="M0 97L0 179L118 175Z" fill="#c49041" stroke="#c49041"></path><path d="M118 175L0 179L105 303Z" fill="#c17946" stroke="#c17946"></path><path d="M230 0L100 0L166 78Z" fill="#b7644d" stroke="#b7644d"></path><path d="M506 600L611 600L571 475Z" fill="#b7644d" stroke="#b7644d"></path><path d="M690 466L828 411L704 363Z" fill="#111c2e" stroke="#111c2e"></path><path d="M786 161L764 0L660 114Z" fill="#3f2d4c" stroke="#3f2d4c"></path><path d="M786 161L833 107L764 0Z" fill="#111c2e" stroke="#111c2e"></path><path d="M900 196L833 107L786 161Z" fill="#b7644d" stroke="#b7644d"></path><path d="M0 97L118 175L137 113Z" fill="#a65354" stroke="#a65354"></path><path d="M0 392L84 502L131 429Z" fill="#a65354" stroke="#a65354"></path><path d="M84 502L191 600L188 478Z" fill="#763c59" stroke="#763c59"></path><path d="M84 502L188 478L131 429Z" fill="#763c59" stroke="#763c59"></path><path d="M0 392L131 429L105 303Z" fill="#5a3555" stroke="#5a3555"></path><path d="M828 483L828 411L690 466Z" fill="#00101c" stroke="#00101c"></path><path d="M796 301L900 196L786 161Z" fill="#5a3555" stroke="#5a3555"></path><path d="M0 179L0 322L105 303Z" fill="#c17946" stroke="#c17946"></path><path d="M611 600L674 600L690 466Z" fill="#00101c" stroke="#00101c"></path><path d="M100 0L0 97L137 113Z" fill="#b7644d" stroke="#b7644d"></path><path d="M0 322L0 392L105 303Z" fill="#111c2e" stroke="#111c2e"></path><path d="M816 600L828 483L690 466Z" fill="#c49041" stroke="#c49041"></path><path d="M900 376L900 262L796 301Z" fill="#5a3555" stroke="#5a3555"></path><path d="M900 376L796 301L828 411Z" fill="#00101c" stroke="#00101c"></path><path d="M900 262L900 196L796 301Z" fill="#26253e" stroke="#26253e"></path><path d="M833 107L900 0L764 0Z" fill="#b7644d" stroke="#b7644d"></path><path d="M100 0L0 0L0 97Z" fill="#5a3555" stroke="#5a3555"></path><path d="M828 483L900 376L828 411Z" fill="#904659" stroke="#904659"></path><path d="M900 196L900 76L833 107Z" fill="#763c59" stroke="#763c59"></path><path d="M84 502L63 600L191 600Z" fill="#c17946" stroke="#c17946"></path><path d="M0 527L63 600L84 502Z" fill="#c49041" stroke="#c49041"></path><path d="M0 392L0 527L84 502Z" fill="#b7644d" stroke="#b7644d"></path><path d="M900 76L900 0L833 107Z" fill="#26253e" stroke="#26253e"></path><path d="M674 600L816 600L690 466Z" fill="#5a3555" stroke="#5a3555"></path><path d="M828 483L900 532L900 376Z" fill="#00101c" stroke="#00101c"></path><path d="M816 600L900 532L828 483Z" fill="#26253e" stroke="#26253e"></path><path d="M0 527L0 600L63 600Z" fill="#00101c" stroke="#00101c"></path><path d="M816 600L900 600L900 532Z" fill="#c17946" stroke="#c17946"></path></g></svg>